<?xml version="1.0" encoding="utf-8"?>
<!-- Svg Vector Icons : http://www.onlinewebfonts.com/icon -->
<!DOCTYPE svg PUBLIC "-//W3C//DTD SVG 1.1//EN" "http://www.w3.org/Graphics/SVG/1.1/DTD/svg11.dtd">
<svg version="1.1" xmlns="http://www.w3.org/2000/svg" xmlns:xlink="http://www.w3.org/1999/xlink" x="0px" y="0px" viewBox="0 0 1000 1000" enable-background="new 0 0 1000 1000" xml:space="preserve">
<metadata> Svg Vector Icons : http://www.onlinewebfonts.com/icon </metadata>
<g><g transform="translate(0.000000,511.000000) scale(0.100000,-0.100000)"><path d="M4403.9,5003.7c-820.1-119.2-1631.4-436.2-2253.7-878.2c-354.8-250.1-918.9-814.2-1169-1169c-366.4-514.7-665.9-1203.9-814.2-1875.7c-55.2-253-64-378-66.9-959.6c0-593.2,8.7-703.7,66.9-985.8C542-2612.3,1775-4008.2,3432.6-4560.7c599.1-197.7,805.5-229.7,1552.9-229.7c729.9-2.9,884.1,17.5,1454,191.9c1724.4,523.4,3006.9,1933.8,3390.7,3733.9c61.1,279.2,69.8,395.5,69.8,971.3c0,712.5-20.4,875.3-194.8,1439.5c-523.4,1718.6-1933.8,3004-3719.3,3390.7c-247.2,52.3-410,66.9-898.6,72.7C4758.6,5012.5,4453.3,5009.6,4403.9,5003.7z M5857.9,4352.3c412.9-87.2,674.7-180.3,1076-378c828.8-410,1523.8-1105,1933.8-1933.8c337.3-677.6,444.9-1151.6,447.8-1919.3c2.9-759-113.4-1265-439.1-1928l-162.8-325.7L8574-2001.7c-293.7,276.3-948,625.2-1686.6,901.5l-366.4,139.6l-203.6-171.6c-264.6-221-474-346.1-741.5-442c-186.1-66.9-255.9-75.6-575.8-75.6s-389.7,8.7-575.8,75.6c-267.5,96-476.9,221-741.5,442l-203.6,171.6l-366.4-139.6c-738.6-276.3-1392.9-625.2-1689.6-904.4l-139.6-130.9l-159.9,328.6c-642.7,1320.3-599.1,2812,125,4074.1c354.8,625.2,965.5,1235.9,1590.7,1590.7c471.1,270.4,1078.9,476.9,1613.9,549.6C4784.8,4451.2,5517.6,4422.1,5857.9,4352.3z"/><path d="M4592.9,3258.9c-287.9-61.1-628.1-241.4-863.7-459.5C2993.5,2119,2859.7,1077.9,3368.6,39.8c503.1-1026.5,1398.8-1494.7,2175.2-1140C6151.6-823.9,6669.2-126,6867,685.3c81.4,328.6,84.3,805.5,11.6,1090.5C6596.5,2840.2,5613.6,3479.9,4592.9,3258.9z"/></g></g>
</svg>